<svg xmlns="http://www.w3.org/2000/svg" xmlns:xlink="http://www.w3.org/1999/xlink" width="550" zoomAndPan="magnify" viewBox="0 0 412.5 284.999983" height="380" preserveAspectRatio="xMidYMid meet" version="1.2"><defs/><g id="96373e5014"><g style="fill:#ffffff;fill-opacity:1;"><g transform="translate(91.044725, 145.431876)"><path style="stroke:none" d="M 1.4375 0 L 1.4375 -0.375 C 1.882812 -0.507812 2.1875 -0.796875 2.34375 -1.234375 C 2.507812 -1.679688 2.59375 -2.488281 2.59375 -3.65625 L 2.59375 -15.359375 C 2.59375 -16.453125 2.523438 -17.300781 2.390625 -17.90625 C 2.253906 -18.507812 2.054688 -18.945312 1.796875 -19.21875 C 1.535156 -19.488281 1.210938 -19.679688 0.828125 -19.796875 L 0.828125 -20.171875 L 4.328125 -20.171875 L 11.84375 -7.75 L 19.21875 -20.171875 L 22.46875 -20.171875 L 22.46875 -19.796875 C 22.082031 -19.679688 21.757812 -19.488281 21.5 -19.21875 C 21.25 -18.945312 21.054688 -18.507812 20.921875 -17.90625 C 20.785156 -17.300781 20.71875 -16.453125 20.71875 -15.359375 L 20.71875 -3.65625 C 20.71875 -2.488281 20.796875 -1.679688 20.953125 -1.234375 C 21.117188 -0.796875 21.425781 -0.507812 21.875 -0.375 L 21.875 0 L 17.203125 0 L 17.203125 -0.375 C 17.640625 -0.507812 17.941406 -0.796875 18.109375 -1.234375 C 18.273438 -1.679688 18.359375 -2.488281 18.359375 -3.65625 L 18.359375 -17.828125 L 11.03125 -5.46875 L 10.484375 -5.46875 L 3.109375 -17.609375 L 3.109375 -4.8125 C 3.109375 -3.71875 3.1875 -2.875 3.34375 -2.28125 C 3.5 -1.6875 3.71875 -1.25 4 -0.96875 C 4.289062 -0.6875 4.648438 -0.488281 5.078125 -0.375 L 5.078125 0 Z M 1.4375 0 "/></g></g><g style="fill:#ffffff;fill-opacity:1;"><g transform="translate(119.497448, 145.431876)"><path style="stroke:none" d="M 1.46875 0 L 1.46875 -0.375 C 1.90625 -0.507812 2.207031 -0.796875 2.375 -1.234375 C 2.539062 -1.679688 2.625 -2.488281 2.625 -3.65625 L 2.625 -16.515625 C 2.625 -17.703125 2.539062 -18.507812 2.375 -18.9375 C 2.207031 -19.375 1.90625 -19.660156 1.46875 -19.796875 L 1.46875 -20.171875 L 6.140625 -20.171875 L 6.140625 -19.796875 C 5.691406 -19.660156 5.382812 -19.375 5.21875 -18.9375 C 5.0625 -18.507812 4.984375 -17.703125 4.984375 -16.515625 L 4.984375 -3.65625 C 4.984375 -2.488281 5.0625 -1.679688 5.21875 -1.234375 C 5.382812 -0.796875 5.691406 -0.507812 6.140625 -0.375 L 6.140625 0 Z M 1.46875 0 "/></g></g><g style="fill:#ffffff;fill-opacity:1;"><g transform="translate(131.622833, 145.431876)"><path style="stroke:none" d="M 8.21875 0.28125 C 6.695312 0.28125 5.332031 0.0625 4.125 -0.375 C 2.914062 -0.8125 1.972656 -1.269531 1.296875 -1.75 L 1.15625 -5.765625 L 1.46875 -5.8125 C 1.851562 -4.820312 2.359375 -3.894531 2.984375 -3.03125 C 3.609375 -2.175781 4.398438 -1.492188 5.359375 -0.984375 C 6.316406 -0.484375 7.457031 -0.234375 8.78125 -0.234375 C 9.550781 -0.234375 10.265625 -0.390625 10.921875 -0.703125 C 11.578125 -1.023438 12.097656 -1.472656 12.484375 -2.046875 C 12.878906 -2.617188 13.078125 -3.289062 13.078125 -4.0625 C 13.078125 -4.789062 12.882812 -5.421875 12.5 -5.953125 C 12.113281 -6.492188 11.613281 -6.96875 11 -7.375 C 10.382812 -7.78125 9.734375 -8.128906 9.046875 -8.421875 C 8.367188 -8.722656 7.722656 -9 7.109375 -9.25 C 5.984375 -9.707031 5 -10.171875 4.15625 -10.640625 C 3.320312 -11.117188 2.679688 -11.6875 2.234375 -12.34375 C 1.785156 -13.007812 1.5625 -13.851562 1.5625 -14.875 C 1.5625 -16 1.851562 -16.96875 2.4375 -17.78125 C 3.019531 -18.601562 3.835938 -19.238281 4.890625 -19.6875 C 5.953125 -20.144531 7.1875 -20.375 8.59375 -20.375 C 9.894531 -20.375 11.015625 -20.226562 11.953125 -19.9375 C 12.898438 -19.644531 13.648438 -19.347656 14.203125 -19.046875 L 14.3125 -15.703125 L 14.03125 -15.609375 C 13.488281 -16.859375 12.703125 -17.882812 11.671875 -18.6875 C 10.648438 -19.5 9.316406 -19.90625 7.671875 -19.90625 C 6.898438 -19.90625 6.179688 -19.753906 5.515625 -19.453125 C 4.859375 -19.160156 4.332031 -18.734375 3.9375 -18.171875 C 3.539062 -17.617188 3.34375 -16.929688 3.34375 -16.109375 C 3.34375 -15.429688 3.503906 -14.84375 3.828125 -14.34375 C 4.160156 -13.84375 4.59375 -13.410156 5.125 -13.046875 C 5.664062 -12.679688 6.253906 -12.359375 6.890625 -12.078125 C 7.523438 -11.804688 8.148438 -11.546875 8.765625 -11.296875 C 9.835938 -10.867188 10.84375 -10.414062 11.78125 -9.9375 C 12.726562 -9.457031 13.492188 -8.867188 14.078125 -8.171875 C 14.660156 -7.484375 14.953125 -6.59375 14.953125 -5.5 C 14.953125 -4.3125 14.625 -3.28125 13.96875 -2.40625 C 13.320312 -1.53125 12.484375 -0.863281 11.453125 -0.40625 C 10.421875 0.0507812 9.34375 0.28125 8.21875 0.28125 Z M 8.21875 0.28125 "/></g></g><g style="fill:#ffffff;fill-opacity:1;"><g transform="translate(152.012677, 145.431876)"><path style="stroke:none" d="M 5.734375 0 L 5.734375 -0.375 C 6.171875 -0.507812 6.472656 -0.796875 6.640625 -1.234375 C 6.804688 -1.679688 6.890625 -2.488281 6.890625 -3.65625 L 6.890625 -19.703125 L 5.46875 -19.703125 C 4.1875 -19.703125 3.207031 -19.5 2.53125 -19.09375 C 1.863281 -18.695312 1.28125 -17.976562 0.78125 -16.9375 L 0.46875 -17 L 0.640625 -20.171875 L 15.46875 -20.171875 L 15.640625 -17 L 15.328125 -16.9375 C 14.847656 -17.976562 14.269531 -18.695312 13.59375 -19.09375 C 12.925781 -19.5 11.9375 -19.703125 10.625 -19.703125 L 9.28125 -19.703125 L 9.28125 -3.65625 C 9.28125 -2.488281 9.359375 -1.679688 9.515625 -1.234375 C 9.679688 -0.796875 9.988281 -0.507812 10.4375 -0.375 L 10.4375 0 Z M 5.734375 0 "/></g></g><g style="fill:#ffffff;fill-opacity:1;"><g transform="translate(172.661679, 145.431876)"><path style="stroke:none" d="M 1.46875 0 L 1.46875 -0.375 C 1.90625 -0.507812 2.207031 -0.796875 2.375 -1.234375 C 2.539062 -1.679688 2.625 -2.488281 2.625 -3.65625 L 2.625 -16.515625 C 2.625 -17.703125 2.539062 -18.507812 2.375 -18.9375 C 2.207031 -19.375 1.90625 -19.660156 1.46875 -19.796875 L 1.46875 -20.171875 L 14.875 -20.171875 L 15.1875 -16.421875 L 14.875 -16.34375 C 14.375 -17.601562 13.675781 -18.484375 12.78125 -18.984375 C 11.882812 -19.484375 10.695312 -19.734375 9.21875 -19.734375 L 4.984375 -19.734375 L 4.984375 -11 L 8.671875 -11 C 9.765625 -11 10.613281 -11.070312 11.21875 -11.21875 C 11.820312 -11.363281 12.265625 -11.582031 12.546875 -11.875 C 12.828125 -12.175781 13.023438 -12.539062 13.140625 -12.96875 L 13.484375 -12.96875 L 13.484375 -8.609375 L 13.140625 -8.609375 C 13.023438 -9.054688 12.828125 -9.421875 12.546875 -9.703125 C 12.265625 -9.992188 11.820312 -10.210938 11.21875 -10.359375 C 10.613281 -10.503906 9.765625 -10.578125 8.671875 -10.578125 L 4.984375 -10.578125 L 4.984375 -1.734375 C 4.984375 -0.867188 5.414062 -0.4375 6.28125 -0.4375 L 10.03125 -0.4375 C 11.40625 -0.4375 12.546875 -0.675781 13.453125 -1.15625 C 14.359375 -1.632812 15.070312 -2.546875 15.59375 -3.890625 L 15.90625 -3.828125 L 15.671875 0 Z M 1.46875 0 "/></g></g><g style="fill:#ffffff;fill-opacity:1;"><g transform="translate(194.145765, 145.431876)"><path style="stroke:none" d="M 16.140625 0.203125 C 15.410156 0.203125 14.832031 0.0234375 14.40625 -0.328125 C 13.976562 -0.679688 13.609375 -1.195312 13.296875 -1.875 C 12.984375 -2.5625 12.613281 -3.40625 12.1875 -4.40625 C 11.757812 -5.40625 11.398438 -6.28125 11.109375 -7.03125 C 10.828125 -7.78125 10.519531 -8.40625 10.1875 -8.90625 C 9.851562 -9.40625 9.425781 -9.78125 8.90625 -10.03125 C 8.382812 -10.28125 7.691406 -10.40625 6.828125 -10.40625 L 4.984375 -10.40625 L 4.984375 -3.65625 C 4.984375 -2.488281 5.0625 -1.679688 5.21875 -1.234375 C 5.382812 -0.796875 5.691406 -0.507812 6.140625 -0.375 L 6.140625 0 L 1.46875 0 L 1.46875 -0.375 C 1.90625 -0.507812 2.207031 -0.796875 2.375 -1.234375 C 2.539062 -1.679688 2.625 -2.488281 2.625 -3.65625 L 2.625 -16.515625 C 2.625 -17.703125 2.539062 -18.507812 2.375 -18.9375 C 2.207031 -19.375 1.90625 -19.660156 1.46875 -19.796875 L 1.46875 -20.171875 L 7.140625 -20.171875 C 9.097656 -20.171875 10.625 -19.972656 11.71875 -19.578125 C 12.820312 -19.179688 13.597656 -18.644531 14.046875 -17.96875 C 14.492188 -17.300781 14.71875 -16.535156 14.71875 -15.671875 C 14.71875 -14.328125 14.238281 -13.175781 13.28125 -12.21875 C 12.320312 -11.269531 10.898438 -10.691406 9.015625 -10.484375 C 9.898438 -10.367188 10.617188 -10.171875 11.171875 -9.890625 C 11.734375 -9.617188 12.195312 -9.242188 12.5625 -8.765625 C 12.925781 -8.296875 13.25 -7.722656 13.53125 -7.046875 C 13.820312 -6.378906 14.144531 -5.601562 14.5 -4.71875 C 14.957031 -3.570312 15.34375 -2.679688 15.65625 -2.046875 C 15.976562 -1.410156 16.269531 -0.960938 16.53125 -0.703125 C 16.800781 -0.441406 17.101562 -0.3125 17.4375 -0.3125 C 17.53125 -0.3125 17.609375 -0.3125 17.671875 -0.3125 C 17.742188 -0.3125 17.816406 -0.320312 17.890625 -0.34375 L 17.890625 0 C 17.679688 0.0703125 17.40625 0.125 17.0625 0.15625 C 16.726562 0.1875 16.421875 0.203125 16.140625 0.203125 Z M 4.984375 -10.828125 L 7.40625 -10.828125 C 9.050781 -10.828125 10.273438 -11.21875 11.078125 -12 C 11.878906 -12.78125 12.28125 -13.785156 12.28125 -15.015625 C 12.28125 -15.878906 12.082031 -16.664062 11.6875 -17.375 C 11.289062 -18.082031 10.65625 -18.648438 9.78125 -19.078125 C 8.90625 -19.515625 7.757812 -19.734375 6.34375 -19.734375 C 6.125 -19.734375 5.898438 -19.726562 5.671875 -19.71875 C 5.441406 -19.707031 5.210938 -19.691406 4.984375 -19.671875 Z M 4.984375 -10.828125 "/></g></g><g style="fill:#ffffff;fill-opacity:1;"><g transform="translate(216.29216, 145.431876)"><path style="stroke:none" d=""/></g></g><g style="fill:#ffffff;fill-opacity:1;"><g transform="translate(226.862565, 145.431876)"><path style="stroke:none" d="M -1.84375 3.453125 C -2.207031 3.453125 -2.488281 3.414062 -2.6875 3.34375 C -2.894531 3.269531 -3 3.097656 -3 2.828125 C -3 2.515625 -2.859375 2.210938 -2.578125 1.921875 C -2.296875 1.640625 -1.90625 1.5 -1.40625 1.5 C -1.007812 1.5 -0.601562 1.53125 -0.1875 1.59375 C 0.226562 1.664062 0.78125 1.78125 1.46875 1.9375 C 1.695312 1.78125 1.925781 1.570312 2.15625 1.3125 C 2.382812 1.050781 2.582031 0.648438 2.75 0.109375 C 2.914062 -0.421875 3 -1.164062 3 -2.125 L 3 -16.515625 C 3 -17.703125 2.914062 -18.507812 2.75 -18.9375 C 2.582031 -19.375 2.28125 -19.660156 1.84375 -19.796875 L 1.84375 -20.171875 L 6.484375 -20.171875 L 6.484375 -19.796875 C 6.035156 -19.660156 5.726562 -19.375 5.5625 -18.9375 C 5.40625 -18.507812 5.328125 -17.703125 5.328125 -16.515625 L 5.328125 -5.640625 C 5.328125 -3.796875 4.984375 -2.191406 4.296875 -0.828125 C 3.617188 0.523438 2.738281 1.578125 1.65625 2.328125 C 0.570312 3.078125 -0.59375 3.453125 -1.84375 3.453125 Z M -1.84375 3.453125 "/></g></g><g style="fill:#ffffff;fill-opacity:1;"><g transform="translate(239.333501, 145.431876)"><path style="stroke:none" d="M 1.46875 0 L 1.46875 -0.375 C 1.90625 -0.507812 2.207031 -0.796875 2.375 -1.234375 C 2.539062 -1.679688 2.625 -2.488281 2.625 -3.65625 L 2.625 -16.515625 C 2.625 -17.703125 2.539062 -18.507812 2.375 -18.9375 C 2.207031 -19.375 1.90625 -19.660156 1.46875 -19.796875 L 1.46875 -20.171875 L 14.875 -20.171875 L 15.1875 -16.421875 L 14.875 -16.34375 C 14.375 -17.601562 13.675781 -18.484375 12.78125 -18.984375 C 11.882812 -19.484375 10.695312 -19.734375 9.21875 -19.734375 L 4.984375 -19.734375 L 4.984375 -11 L 8.671875 -11 C 9.765625 -11 10.613281 -11.070312 11.21875 -11.21875 C 11.820312 -11.363281 12.265625 -11.582031 12.546875 -11.875 C 12.828125 -12.175781 13.023438 -12.539062 13.140625 -12.96875 L 13.484375 -12.96875 L 13.484375 -8.609375 L 13.140625 -8.609375 C 13.023438 -9.054688 12.828125 -9.421875 12.546875 -9.703125 C 12.265625 -9.992188 11.820312 -10.210938 11.21875 -10.359375 C 10.613281 -10.503906 9.765625 -10.578125 8.671875 -10.578125 L 4.984375 -10.578125 L 4.984375 -1.734375 C 4.984375 -0.867188 5.414062 -0.4375 6.28125 -0.4375 L 10.03125 -0.4375 C 11.40625 -0.4375 12.546875 -0.675781 13.453125 -1.15625 C 14.359375 -1.632812 15.070312 -2.546875 15.59375 -3.890625 L 15.90625 -3.828125 L 15.671875 0 Z M 1.46875 0 "/></g></g><g style="fill:#ffffff;fill-opacity:1;"><g transform="translate(260.817587, 145.431876)"><path style="stroke:none" d="M 16.140625 0.203125 C 15.410156 0.203125 14.832031 0.0234375 14.40625 -0.328125 C 13.976562 -0.679688 13.609375 -1.195312 13.296875 -1.875 C 12.984375 -2.5625 12.613281 -3.40625 12.1875 -4.40625 C 11.757812 -5.40625 11.398438 -6.28125 11.109375 -7.03125 C 10.828125 -7.78125 10.519531 -8.40625 10.1875 -8.90625 C 9.851562 -9.40625 9.425781 -9.78125 8.90625 -10.03125 C 8.382812 -10.28125 7.691406 -10.40625 6.828125 -10.40625 L 4.984375 -10.40625 L 4.984375 -3.65625 C 4.984375 -2.488281 5.0625 -1.679688 5.21875 -1.234375 C 5.382812 -0.796875 5.691406 -0.507812 6.140625 -0.375 L 6.140625 0 L 1.46875 0 L 1.46875 -0.375 C 1.90625 -0.507812 2.207031 -0.796875 2.375 -1.234375 C 2.539062 -1.679688 2.625 -2.488281 2.625 -3.65625 L 2.625 -16.515625 C 2.625 -17.703125 2.539062 -18.507812 2.375 -18.9375 C 2.207031 -19.375 1.90625 -19.660156 1.46875 -19.796875 L 1.46875 -20.171875 L 7.140625 -20.171875 C 9.097656 -20.171875 10.625 -19.972656 11.71875 -19.578125 C 12.820312 -19.179688 13.597656 -18.644531 14.046875 -17.96875 C 14.492188 -17.300781 14.71875 -16.535156 14.71875 -15.671875 C 14.71875 -14.328125 14.238281 -13.175781 13.28125 -12.21875 C 12.320312 -11.269531 10.898438 -10.691406 9.015625 -10.484375 C 9.898438 -10.367188 10.617188 -10.171875 11.171875 -9.890625 C 11.734375 -9.617188 12.195312 -9.242188 12.5625 -8.765625 C 12.925781 -8.296875 13.25 -7.722656 13.53125 -7.046875 C 13.820312 -6.378906 14.144531 -5.601562 14.5 -4.71875 C 14.957031 -3.570312 15.34375 -2.679688 15.65625 -2.046875 C 15.976562 -1.410156 16.269531 -0.960938 16.53125 -0.703125 C 16.800781 -0.441406 17.101562 -0.3125 17.4375 -0.3125 C 17.53125 -0.3125 17.609375 -0.3125 17.671875 -0.3125 C 17.742188 -0.3125 17.816406 -0.320312 17.890625 -0.34375 L 17.890625 0 C 17.679688 0.0703125 17.40625 0.125 17.0625 0.15625 C 16.726562 0.1875 16.421875 0.203125 16.140625 0.203125 Z M 4.984375 -10.828125 L 7.40625 -10.828125 C 9.050781 -10.828125 10.273438 -11.21875 11.078125 -12 C 11.878906 -12.78125 12.28125 -13.785156 12.28125 -15.015625 C 12.28125 -15.878906 12.082031 -16.664062 11.6875 -17.375 C 11.289062 -18.082031 10.65625 -18.648438 9.78125 -19.078125 C 8.90625 -19.515625 7.757812 -19.734375 6.34375 -19.734375 C 6.125 -19.734375 5.898438 -19.726562 5.671875 -19.71875 C 5.441406 -19.707031 5.210938 -19.691406 4.984375 -19.671875 Z M 4.984375 -10.828125 "/></g></g><g style="fill:#ffffff;fill-opacity:1;"><g transform="translate(282.963982, 145.431876)"><path style="stroke:none" d="M 16.140625 0.203125 C 15.410156 0.203125 14.832031 0.0234375 14.40625 -0.328125 C 13.976562 -0.679688 13.609375 -1.195312 13.296875 -1.875 C 12.984375 -2.5625 12.613281 -3.40625 12.1875 -4.40625 C 11.757812 -5.40625 11.398438 -6.28125 11.109375 -7.03125 C 10.828125 -7.78125 10.519531 -8.40625 10.1875 -8.90625 C 9.851562 -9.40625 9.425781 -9.78125 8.90625 -10.03125 C 8.382812 -10.28125 7.691406 -10.40625 6.828125 -10.40625 L 4.984375 -10.40625 L 4.984375 -3.65625 C 4.984375 -2.488281 5.0625 -1.679688 5.21875 -1.234375 C 5.382812 -0.796875 5.691406 -0.507812 6.140625 -0.375 L 6.140625 0 L 1.46875 0 L 1.46875 -0.375 C 1.90625 -0.507812 2.207031 -0.796875 2.375 -1.234375 C 2.539062 -1.679688 2.625 -2.488281 2.625 -3.65625 L 2.625 -16.515625 C 2.625 -17.703125 2.539062 -18.507812 2.375 -18.9375 C 2.207031 -19.375 1.90625 -19.660156 1.46875 -19.796875 L 1.46875 -20.171875 L 7.140625 -20.171875 C 9.097656 -20.171875 10.625 -19.972656 11.71875 -19.578125 C 12.820312 -19.179688 13.597656 -18.644531 14.046875 -17.96875 C 14.492188 -17.300781 14.71875 -16.535156 14.71875 -15.671875 C 14.71875 -14.328125 14.238281 -13.175781 13.28125 -12.21875 C 12.320312 -11.269531 10.898438 -10.691406 9.015625 -10.484375 C 9.898438 -10.367188 10.617188 -10.171875 11.171875 -9.890625 C 11.734375 -9.617188 12.195312 -9.242188 12.5625 -8.765625 C 12.925781 -8.296875 13.25 -7.722656 13.53125 -7.046875 C 13.820312 -6.378906 14.144531 -5.601562 14.5 -4.71875 C 14.957031 -3.570312 15.34375 -2.679688 15.65625 -2.046875 C 15.976562 -1.410156 16.269531 -0.960938 16.53125 -0.703125 C 16.800781 -0.441406 17.101562 -0.3125 17.4375 -0.3125 C 17.53125 -0.3125 17.609375 -0.3125 17.671875 -0.3125 C 17.742188 -0.3125 17.816406 -0.320312 17.890625 -0.34375 L 17.890625 0 C 17.679688 0.0703125 17.40625 0.125 17.0625 0.15625 C 16.726562 0.1875 16.421875 0.203125 16.140625 0.203125 Z M 4.984375 -10.828125 L 7.40625 -10.828125 C 9.050781 -10.828125 10.273438 -11.21875 11.078125 -12 C 11.878906 -12.78125 12.28125 -13.785156 12.28125 -15.015625 C 12.28125 -15.878906 12.082031 -16.664062 11.6875 -17.375 C 11.289062 -18.082031 10.65625 -18.648438 9.78125 -19.078125 C 8.90625 -19.515625 7.757812 -19.734375 6.34375 -19.734375 C 6.125 -19.734375 5.898438 -19.726562 5.671875 -19.71875 C 5.441406 -19.707031 5.210938 -19.691406 4.984375 -19.671875 Z M 4.984375 -10.828125 "/></g></g><g style="fill:#ffffff;fill-opacity:1;"><g transform="translate(305.110377, 145.431876)"><path style="stroke:none" d="M 5.453125 0 L 5.453125 -0.375 C 5.890625 -0.507812 6.1875 -0.796875 6.34375 -1.234375 C 6.507812 -1.679688 6.582031 -2.488281 6.5625 -3.65625 L 6.5625 -9.078125 L 2.21875 -16.96875 C 1.664062 -17.988281 1.175781 -18.679688 0.75 -19.046875 C 0.320312 -19.410156 -0.0390625 -19.660156 -0.34375 -19.796875 L -0.34375 -20.171875 L 4.203125 -20.171875 L 4.203125 -19.796875 C 3.785156 -19.660156 3.640625 -19.410156 3.765625 -19.046875 C 3.898438 -18.679688 4.257812 -17.988281 4.84375 -16.96875 L 8.84375 -9.828125 L 12.875 -16.96875 C 13.375 -17.851562 13.625 -18.519531 13.625 -18.96875 C 13.625 -19.425781 13.347656 -19.703125 12.796875 -19.796875 L 12.796875 -20.171875 L 16.21875 -20.171875 L 16.21875 -19.796875 C 15.832031 -19.660156 15.410156 -19.410156 14.953125 -19.046875 C 14.492188 -18.679688 13.972656 -17.988281 13.390625 -16.96875 L 8.984375 -9.140625 L 8.984375 -3.65625 C 8.984375 -2.488281 9.066406 -1.679688 9.234375 -1.234375 C 9.398438 -0.796875 9.703125 -0.507812 10.140625 -0.375 L 10.140625 0 Z M 5.453125 0 "/></g></g><path style="fill:none;stroke-width:1;stroke-linecap:butt;stroke-linejoin:miter;stroke:#ffffff;stroke-opacity:1;stroke-miterlimit:4;" d="M -0.00163174 0.498666 L 88.261212 0.498666 " transform="matrix(0.74697,0,0,0.74697,139.884031,160.068918)"/><g style="fill:#ffffff;fill-opacity:1;"><g transform="translate(206.000294, 163.319098)"><path style="stroke:none" d="M 4.046875 -3.1875 C 3.972656 -3.1875 3.9375 -3.226562 3.9375 -3.3125 C 3.9375 -3.363281 4.007812 -3.472656 4.15625 -3.640625 C 4.3125 -3.816406 4.5 -4.023438 4.71875 -4.265625 C 4.945312 -4.503906 5.15625 -4.734375 5.34375 -4.953125 C 5.851562 -5.515625 6.300781 -5.929688 6.6875 -6.203125 C 7.070312 -6.484375 7.429688 -6.625 7.765625 -6.625 C 8.066406 -6.625 8.296875 -6.507812 8.453125 -6.28125 C 8.617188 -6.050781 8.703125 -5.796875 8.703125 -5.515625 C 8.703125 -5.191406 8.609375 -4.816406 8.421875 -4.390625 C 8.242188 -3.972656 8.035156 -3.570312 7.796875 -3.1875 C 7.554688 -2.8125 7.359375 -2.507812 7.203125 -2.28125 L 7.25 -2.234375 C 7.882812 -2.984375 8.457031 -3.578125 8.96875 -4.015625 C 9.476562 -4.453125 9.785156 -4.832031 9.890625 -5.15625 C 10.015625 -5.5 10.203125 -5.828125 10.453125 -6.140625 C 10.710938 -6.460938 11.050781 -6.625 11.46875 -6.625 C 11.851562 -6.625 12.046875 -6.5 12.046875 -6.25 C 12.046875 -6.007812 11.910156 -5.78125 11.640625 -5.5625 C 11.367188 -5.351562 11.054688 -5.125 10.703125 -4.875 C 10.359375 -4.625 10.050781 -4.34375 9.78125 -4.03125 C 9.507812 -3.726562 9.375 -3.367188 9.375 -2.953125 C 9.375 -2.710938 9.453125 -2.515625 9.609375 -2.359375 C 9.765625 -2.210938 9.945312 -2.140625 10.15625 -2.140625 C 10.550781 -2.140625 10.910156 -2.300781 11.234375 -2.625 C 11.503906 -2.894531 11.691406 -3.113281 11.796875 -3.28125 C 11.910156 -3.445312 11.992188 -3.53125 12.046875 -3.53125 C 12.140625 -3.53125 12.1875 -3.488281 12.1875 -3.40625 C 12.1875 -3.375 12.113281 -3.269531 11.96875 -3.09375 C 11.820312 -2.925781 11.695312 -2.773438 11.59375 -2.640625 C 11.351562 -2.367188 11.101562 -2.175781 10.84375 -2.0625 C 10.59375 -1.957031 10.359375 -1.90625 10.140625 -1.90625 C 9.878906 -1.90625 9.632812 -1.988281 9.40625 -2.15625 C 9.1875 -2.320312 9.078125 -2.550781 9.078125 -2.84375 C 9.078125 -3.113281 9.117188 -3.351562 9.203125 -3.5625 C 9.285156 -3.78125 9.40625 -3.984375 9.5625 -4.171875 L 9.515625 -4.21875 C 8.890625 -3.644531 8.28125 -3.015625 7.6875 -2.328125 C 7.101562 -1.648438 6.507812 -0.921875 5.90625 -0.140625 L 4.40625 0 C 5.21875 -1.300781 5.894531 -2.351562 6.4375 -3.15625 C 6.976562 -3.957031 7.382812 -4.582031 7.65625 -5.03125 C 7.9375 -5.476562 8.078125 -5.804688 8.078125 -6.015625 C 8.078125 -6.234375 7.941406 -6.34375 7.671875 -6.34375 C 7.515625 -6.34375 7.285156 -6.257812 6.984375 -6.09375 C 6.679688 -5.925781 6.289062 -5.597656 5.8125 -5.109375 C 5.34375 -4.609375 4.984375 -4.21875 4.734375 -3.9375 C 4.484375 -3.664062 4.3125 -3.472656 4.21875 -3.359375 C 4.132812 -3.242188 4.078125 -3.1875 4.046875 -3.1875 Z M 4.046875 -3.1875 "/></g></g><g style="fill:#ffffff;fill-opacity:1;"><g transform="translate(213.937322, 163.319098)"><path style="stroke:none" d="M 10.15625 -5.484375 C 10.15625 -5.035156 9.96875 -4.632812 9.59375 -4.28125 C 9.21875 -3.925781 8.757812 -3.613281 8.21875 -3.34375 C 7.6875 -3.082031 7.144531 -2.867188 6.59375 -2.703125 C 6.039062 -2.535156 5.59375 -2.414062 5.25 -2.34375 C 5.226562 -2.207031 5.207031 -2.070312 5.1875 -1.9375 C 5.164062 -1.800781 5.15625 -1.671875 5.15625 -1.546875 C 5.15625 -1.085938 5.226562 -0.765625 5.375 -0.578125 C 5.53125 -0.398438 5.789062 -0.300781 6.15625 -0.28125 C 6.46875 -0.269531 6.914062 -0.398438 7.5 -0.671875 C 8.09375 -0.953125 8.753906 -1.453125 9.484375 -2.171875 C 9.953125 -2.648438 10.269531 -3 10.4375 -3.21875 C 10.601562 -3.4375 10.707031 -3.546875 10.75 -3.546875 C 10.832031 -3.546875 10.875 -3.5 10.875 -3.40625 C 10.875 -3.375 10.785156 -3.25 10.609375 -3.03125 C 10.429688 -2.820312 10.210938 -2.582031 9.953125 -2.3125 C 9.703125 -2.039062 9.460938 -1.796875 9.234375 -1.578125 C 8.640625 -1.035156 8.085938 -0.640625 7.578125 -0.390625 C 7.066406 -0.148438 6.535156 -0.0195312 5.984375 0 C 5.554688 0 5.203125 -0.117188 4.921875 -0.359375 C 4.640625 -0.609375 4.429688 -0.925781 4.296875 -1.3125 C 4.160156 -1.707031 4.09375 -2.113281 4.09375 -2.53125 C 4.09375 -2.707031 4.101562 -2.859375 4.125 -2.984375 C 4.15625 -3.109375 4.171875 -3.1875 4.171875 -3.21875 C 4.171875 -3.25 4.164062 -3.265625 4.15625 -3.265625 C 4.101562 -3.210938 4.078125 -3.1875 4.078125 -3.1875 C 4.054688 -3.1875 4.03125 -3.207031 4 -3.25 C 3.96875 -3.289062 3.953125 -3.320312 3.953125 -3.34375 C 3.953125 -3.375 4.007812 -3.457031 4.125 -3.59375 C 4.25 -3.738281 4.382812 -3.882812 4.53125 -4.03125 C 4.675781 -4.1875 4.78125 -4.296875 4.84375 -4.359375 C 5.488281 -5.023438 6.175781 -5.566406 6.90625 -5.984375 C 7.644531 -6.410156 8.332031 -6.625 8.96875 -6.625 C 9.332031 -6.625 9.617188 -6.515625 9.828125 -6.296875 C 10.046875 -6.085938 10.15625 -5.816406 10.15625 -5.484375 Z M 8.96875 -6.34375 C 8.644531 -6.34375 8.289062 -6.210938 7.90625 -5.953125 C 7.53125 -5.703125 7.160156 -5.378906 6.796875 -4.984375 C 6.441406 -4.585938 6.128906 -4.175781 5.859375 -3.75 C 5.585938 -3.332031 5.414062 -2.957031 5.34375 -2.625 C 5.738281 -2.664062 6.171875 -2.78125 6.640625 -2.96875 C 7.109375 -3.15625 7.554688 -3.394531 7.984375 -3.6875 C 8.410156 -3.976562 8.757812 -4.3125 9.03125 -4.6875 C 9.300781 -5.0625 9.4375 -5.460938 9.4375 -5.890625 C 9.4375 -6.191406 9.28125 -6.34375 8.96875 -6.34375 Z M 8.96875 -6.34375 "/></g></g><g style="fill:#ffffff;fill-opacity:1;"><g transform="translate(220.563424, 163.319098)"><path style="stroke:none" d="M 5.578125 0 C 5.179688 0 4.867188 -0.101562 4.640625 -0.3125 C 4.421875 -0.53125 4.269531 -0.804688 4.1875 -1.140625 C 4.113281 -1.472656 4.078125 -1.816406 4.078125 -2.171875 C 4.078125 -2.359375 4.085938 -2.539062 4.109375 -2.71875 C 4.140625 -2.90625 4.171875 -3.097656 4.203125 -3.296875 C 4.179688 -3.296875 4.15625 -3.28125 4.125 -3.25 C 4.101562 -3.226562 4.078125 -3.21875 4.046875 -3.21875 C 3.984375 -3.21875 3.953125 -3.257812 3.953125 -3.34375 C 3.953125 -3.382812 3.972656 -3.425781 4.015625 -3.46875 C 4.066406 -3.519531 4.175781 -3.644531 4.34375 -3.84375 C 4.988281 -4.632812 5.753906 -5.296875 6.640625 -5.828125 C 7.523438 -6.359375 8.378906 -6.625 9.203125 -6.625 C 9.566406 -6.625 9.828125 -6.507812 9.984375 -6.28125 C 10.148438 -6.050781 10.234375 -5.773438 10.234375 -5.453125 C 10.234375 -5.171875 10.207031 -4.957031 10.15625 -4.8125 L 10.203125 -4.765625 C 10.492188 -5.222656 10.703125 -5.570312 10.828125 -5.8125 C 10.953125 -6.050781 11.054688 -6.21875 11.140625 -6.3125 C 11.234375 -6.414062 11.359375 -6.46875 11.515625 -6.46875 L 12.65625 -6.515625 C 12.53125 -6.347656 12.332031 -6.066406 12.0625 -5.671875 C 11.789062 -5.273438 11.492188 -4.828125 11.171875 -4.328125 C 10.847656 -3.828125 10.535156 -3.320312 10.234375 -2.8125 C 9.941406 -2.300781 9.703125 -1.847656 9.515625 -1.453125 C 9.328125 -1.066406 9.234375 -0.789062 9.234375 -0.625 C 9.234375 -0.394531 9.367188 -0.28125 9.640625 -0.28125 C 10.003906 -0.28125 10.488281 -0.554688 11.09375 -1.109375 C 11.695312 -1.660156 12.335938 -2.335938 13.015625 -3.140625 C 13.160156 -3.316406 13.253906 -3.425781 13.296875 -3.46875 C 13.335938 -3.507812 13.363281 -3.53125 13.375 -3.53125 C 13.46875 -3.53125 13.515625 -3.484375 13.515625 -3.390625 C 13.515625 -3.367188 13.441406 -3.273438 13.296875 -3.109375 C 13.160156 -2.941406 12.992188 -2.742188 12.796875 -2.515625 C 12.597656 -2.296875 12.398438 -2.085938 12.203125 -1.890625 C 11.660156 -1.316406 11.160156 -0.859375 10.703125 -0.515625 C 10.253906 -0.171875 9.875 0 9.5625 0 C 9.238281 0 8.984375 -0.109375 8.796875 -0.328125 C 8.609375 -0.554688 8.515625 -0.992188 8.515625 -1.640625 C 8.515625 -1.722656 8.515625 -1.800781 8.515625 -1.875 C 8.523438 -1.945312 8.53125 -2.015625 8.53125 -2.078125 C 8.289062 -1.835938 7.992188 -1.550781 7.640625 -1.21875 C 7.296875 -0.894531 6.941406 -0.609375 6.578125 -0.359375 C 6.210938 -0.117188 5.878906 0 5.578125 0 Z M 5.03125 -1.046875 C 5.03125 -0.828125 5.070312 -0.644531 5.15625 -0.5 C 5.25 -0.351562 5.390625 -0.28125 5.578125 -0.28125 C 5.847656 -0.28125 6.171875 -0.398438 6.546875 -0.640625 C 6.929688 -0.878906 7.316406 -1.195312 7.703125 -1.59375 C 8.097656 -1.988281 8.46875 -2.421875 8.8125 -2.890625 C 9.15625 -3.359375 9.425781 -3.816406 9.625 -4.265625 C 9.832031 -4.722656 9.9375 -5.128906 9.9375 -5.484375 C 9.9375 -5.722656 9.875 -5.925781 9.75 -6.09375 C 9.632812 -6.257812 9.453125 -6.34375 9.203125 -6.34375 C 8.722656 -6.34375 8.238281 -6.148438 7.75 -5.765625 C 7.257812 -5.390625 6.804688 -4.914062 6.390625 -4.34375 C 5.972656 -3.769531 5.640625 -3.179688 5.390625 -2.578125 C 5.148438 -1.984375 5.03125 -1.472656 5.03125 -1.046875 Z M 5.03125 -1.046875 "/></g></g><g style="fill:#ffffff;fill-opacity:1;"><g transform="translate(229.835205, 163.319098)"><path style="stroke:none" d="M 11.5625 -14.1875 L 13.140625 -14.359375 C 11.597656 -11.910156 10.296875 -9.863281 9.234375 -8.21875 C 8.179688 -6.570312 7.335938 -5.234375 6.703125 -4.203125 C 6.078125 -3.179688 5.625 -2.390625 5.34375 -1.828125 C 5.070312 -1.273438 4.9375 -0.863281 4.9375 -0.59375 C 4.9375 -0.53125 4.972656 -0.460938 5.046875 -0.390625 C 5.117188 -0.316406 5.207031 -0.28125 5.3125 -0.28125 C 5.675781 -0.28125 6.082031 -0.4375 6.53125 -0.75 C 6.976562 -1.0625 7.492188 -1.507812 8.078125 -2.09375 C 8.617188 -2.65625 8.960938 -3.035156 9.109375 -3.234375 C 9.265625 -3.441406 9.375 -3.546875 9.4375 -3.546875 C 9.519531 -3.546875 9.5625 -3.507812 9.5625 -3.4375 C 9.5625 -3.40625 9.453125 -3.257812 9.234375 -3 C 9.023438 -2.75 8.832031 -2.535156 8.65625 -2.359375 C 7.96875 -1.628906 7.34375 -1.050781 6.78125 -0.625 C 6.21875 -0.207031 5.707031 0 5.25 0 C 4.851562 0 4.582031 -0.117188 4.4375 -0.359375 C 4.289062 -0.609375 4.21875 -0.882812 4.21875 -1.1875 C 4.21875 -1.664062 4.304688 -2.097656 4.484375 -2.484375 C 4.660156 -2.878906 4.929688 -3.335938 5.296875 -3.859375 C 5.660156 -4.390625 6.113281 -5.109375 6.65625 -6.015625 L 6.609375 -6.0625 C 6.398438 -5.820312 6.179688 -5.566406 5.953125 -5.296875 C 5.734375 -5.023438 5.425781 -4.675781 5.03125 -4.25 C 4.582031 -3.75 4.296875 -3.425781 4.171875 -3.28125 C 4.054688 -3.144531 3.96875 -3.078125 3.90625 -3.078125 C 3.84375 -3.078125 3.8125 -3.113281 3.8125 -3.1875 C 3.8125 -3.238281 3.957031 -3.421875 4.25 -3.734375 C 4.550781 -4.054688 4.9375 -4.488281 5.40625 -5.03125 C 5.882812 -5.582031 6.410156 -6.234375 6.984375 -6.984375 C 7.554688 -7.742188 8.128906 -8.585938 8.703125 -9.515625 Z M 11.5625 -14.1875 "/></g></g><g style="fill:#ffffff;fill-opacity:1;"><g transform="translate(235.126553, 163.319098)"><path style="stroke:none" d=""/></g></g><g style="fill:#ffffff;fill-opacity:1;"><g transform="translate(239.750524, 163.319098)"><path style="stroke:none" d="M 10.375 -5.453125 C 10.375 -5.234375 10.289062 -5.007812 10.125 -4.78125 C 9.96875 -4.550781 9.753906 -4.4375 9.484375 -4.4375 C 9.285156 -4.4375 9.132812 -4.492188 9.03125 -4.609375 C 8.9375 -4.734375 8.890625 -4.875 8.890625 -5.03125 C 8.890625 -5.238281 8.945312 -5.375 9.0625 -5.4375 C 9.1875 -5.5 9.304688 -5.550781 9.421875 -5.59375 C 9.546875 -5.644531 9.609375 -5.757812 9.609375 -5.9375 C 9.609375 -6.03125 9.5625 -6.117188 9.46875 -6.203125 C 9.382812 -6.296875 9.25 -6.34375 9.0625 -6.34375 C 8.707031 -6.34375 8.3125 -6.203125 7.875 -5.921875 C 7.4375 -5.648438 7.019531 -5.273438 6.625 -4.796875 C 6.226562 -4.316406 5.898438 -3.769531 5.640625 -3.15625 C 5.390625 -2.539062 5.265625 -1.894531 5.265625 -1.21875 C 5.265625 -0.59375 5.597656 -0.28125 6.265625 -0.28125 C 6.679688 -0.28125 7.160156 -0.429688 7.703125 -0.734375 C 8.253906 -1.035156 8.796875 -1.457031 9.328125 -2 C 9.753906 -2.445312 10.0625 -2.78125 10.25 -3 C 10.4375 -3.226562 10.554688 -3.375 10.609375 -3.4375 C 10.671875 -3.507812 10.710938 -3.546875 10.734375 -3.546875 C 10.828125 -3.546875 10.875 -3.5 10.875 -3.40625 C 10.875 -3.375 10.78125 -3.25 10.59375 -3.03125 C 10.414062 -2.820312 10.195312 -2.582031 9.9375 -2.3125 C 9.195312 -1.488281 8.523438 -0.894531 7.921875 -0.53125 C 7.316406 -0.175781 6.710938 0 6.109375 0 C 5.609375 0 5.222656 -0.132812 4.953125 -0.40625 C 4.679688 -0.6875 4.488281 -1.03125 4.375 -1.4375 C 4.269531 -1.84375 4.21875 -2.238281 4.21875 -2.625 C 4.21875 -2.8125 4.226562 -2.957031 4.25 -3.0625 C 4.28125 -3.164062 4.296875 -3.234375 4.296875 -3.265625 C 4.296875 -3.296875 4.28125 -3.3125 4.25 -3.3125 C 4.21875 -3.3125 4.1875 -3.296875 4.15625 -3.265625 C 4.132812 -3.234375 4.109375 -3.21875 4.078125 -3.21875 C 3.992188 -3.21875 3.953125 -3.257812 3.953125 -3.34375 C 3.953125 -3.375 3.992188 -3.441406 4.078125 -3.546875 C 4.160156 -3.648438 4.390625 -3.921875 4.765625 -4.359375 C 5.453125 -5.160156 6.132812 -5.738281 6.8125 -6.09375 C 7.488281 -6.445312 8.160156 -6.625 8.828125 -6.625 C 9.285156 -6.625 9.65625 -6.523438 9.9375 -6.328125 C 10.226562 -6.128906 10.375 -5.835938 10.375 -5.453125 Z M 10.375 -5.453125 "/></g></g><g style="fill:#ffffff;fill-opacity:1;"><g transform="translate(246.376626, 163.319098)"><path style="stroke:none" d="M 10.59375 -4.984375 C 10.59375 -4.492188 10.445312 -3.960938 10.15625 -3.390625 C 9.875 -2.828125 9.550781 -2.363281 9.1875 -2 C 9.25 -1.96875 9.332031 -1.953125 9.4375 -1.953125 C 9.851562 -1.953125 10.25 -2.054688 10.625 -2.265625 C 11.007812 -2.484375 11.351562 -2.769531 11.65625 -3.125 C 11.8125 -3.300781 11.910156 -3.410156 11.953125 -3.453125 C 11.992188 -3.503906 12.03125 -3.53125 12.0625 -3.53125 C 12.144531 -3.53125 12.1875 -3.488281 12.1875 -3.40625 C 12.1875 -3.394531 12.15625 -3.34375 12.09375 -3.25 C 12.03125 -3.164062 11.863281 -2.976562 11.59375 -2.6875 C 11.289062 -2.382812 10.9375 -2.140625 10.53125 -1.953125 C 10.125 -1.765625 9.691406 -1.671875 9.234375 -1.671875 C 9.066406 -1.671875 8.960938 -1.675781 8.921875 -1.6875 C 8.554688 -1.28125 8.117188 -0.894531 7.609375 -0.53125 C 7.109375 -0.175781 6.523438 0 5.859375 0 C 5.390625 0 5.023438 -0.191406 4.765625 -0.578125 C 4.515625 -0.972656 4.390625 -1.488281 4.390625 -2.125 C 4.390625 -2.550781 4.40625 -2.847656 4.4375 -3.015625 C 4.476562 -3.179688 4.5 -3.296875 4.5 -3.359375 C 4.5 -3.453125 4.476562 -3.5 4.4375 -3.5 C 4.34375 -3.5 4.253906 -3.4375 4.171875 -3.3125 C 4.085938 -3.1875 4.03125 -3.125 4 -3.125 C 3.90625 -3.125 3.859375 -3.164062 3.859375 -3.25 C 3.859375 -3.289062 3.929688 -3.394531 4.078125 -3.5625 C 4.234375 -3.726562 4.414062 -3.921875 4.625 -4.140625 C 4.84375 -4.367188 5.050781 -4.570312 5.25 -4.75 C 5.945312 -5.394531 6.632812 -5.867188 7.3125 -6.171875 C 8 -6.472656 8.613281 -6.625 9.15625 -6.625 C 9.613281 -6.625 9.96875 -6.46875 10.21875 -6.15625 C 10.46875 -5.851562 10.59375 -5.460938 10.59375 -4.984375 Z M 10.0625 -5.265625 C 10.0625 -5.554688 10 -5.804688 9.875 -6.015625 C 9.75 -6.234375 9.535156 -6.34375 9.234375 -6.34375 C 8.816406 -6.34375 8.378906 -6.171875 7.921875 -5.828125 C 7.472656 -5.484375 7.050781 -5.039062 6.65625 -4.5 C 6.269531 -3.96875 5.953125 -3.40625 5.703125 -2.8125 C 5.460938 -2.226562 5.34375 -1.679688 5.34375 -1.171875 C 5.34375 -0.835938 5.40625 -0.601562 5.53125 -0.46875 C 5.65625 -0.34375 5.800781 -0.28125 5.96875 -0.28125 C 6.4375 -0.28125 6.910156 -0.4375 7.390625 -0.75 C 7.867188 -1.0625 8.3125 -1.46875 8.71875 -1.96875 C 9.125 -2.46875 9.445312 -3.003906 9.6875 -3.578125 C 9.9375 -4.160156 10.0625 -4.722656 10.0625 -5.265625 Z M 10.0625 -5.265625 "/></g></g><g style="fill:#ffffff;fill-opacity:1;"><g transform="translate(254.313654, 163.319098)"><path style="stroke:none" d="M 10.15625 -0.140625 L 8.65625 0 C 8.75 -0.175781 8.921875 -0.46875 9.171875 -0.875 C 9.429688 -1.28125 9.722656 -1.734375 10.046875 -2.234375 C 10.367188 -2.742188 10.6875 -3.253906 11 -3.765625 C 11.3125 -4.273438 11.566406 -4.734375 11.765625 -5.140625 C 11.960938 -5.546875 12.0625 -5.828125 12.0625 -5.984375 C 12.0625 -6.203125 11.957031 -6.320312 11.75 -6.34375 C 11.539062 -6.375 11.238281 -6.210938 10.84375 -5.859375 C 10.445312 -5.515625 10.003906 -5.066406 9.515625 -4.515625 C 9.023438 -3.972656 8.539062 -3.398438 8.0625 -2.796875 C 7.582031 -2.203125 7.160156 -1.660156 6.796875 -1.171875 C 6.429688 -0.691406 6.175781 -0.347656 6.03125 -0.140625 L 4.484375 0 C 5.640625 -1.84375 6.535156 -3.253906 7.171875 -4.234375 C 7.804688 -5.222656 8.125 -5.816406 8.125 -6.015625 C 8.125 -6.234375 8.003906 -6.34375 7.765625 -6.34375 C 7.429688 -6.34375 7.070312 -6.1875 6.6875 -5.875 C 6.300781 -5.5625 5.910156 -5.203125 5.515625 -4.796875 C 4.953125 -4.203125 4.578125 -3.785156 4.390625 -3.546875 C 4.210938 -3.304688 4.097656 -3.1875 4.046875 -3.1875 C 3.972656 -3.1875 3.9375 -3.238281 3.9375 -3.34375 C 3.9375 -3.375 4.054688 -3.53125 4.296875 -3.8125 C 4.546875 -4.101562 4.894531 -4.492188 5.34375 -4.984375 C 5.894531 -5.597656 6.367188 -6.023438 6.765625 -6.265625 C 7.171875 -6.503906 7.515625 -6.625 7.796875 -6.625 C 8.429688 -6.625 8.75 -6.320312 8.75 -5.71875 C 8.75 -5.375 8.671875 -5.003906 8.515625 -4.609375 C 8.359375 -4.222656 8.171875 -3.847656 7.953125 -3.484375 C 7.734375 -3.117188 7.546875 -2.789062 7.390625 -2.5 L 7.4375 -2.453125 C 7.644531 -2.679688 7.929688 -3.019531 8.296875 -3.46875 C 8.660156 -3.925781 9.054688 -4.394531 9.484375 -4.875 C 9.921875 -5.363281 10.347656 -5.773438 10.765625 -6.109375 C 11.179688 -6.453125 11.550781 -6.625 11.875 -6.625 C 12.414062 -6.625 12.6875 -6.269531 12.6875 -5.5625 C 12.6875 -5.03125 12.546875 -4.492188 12.265625 -3.953125 C 11.984375 -3.410156 11.734375 -2.941406 11.515625 -2.546875 L 11.5625 -2.5 C 11.769531 -2.738281 12.0625 -3.082031 12.4375 -3.53125 C 12.8125 -3.988281 13.21875 -4.453125 13.65625 -4.921875 C 14.09375 -5.390625 14.53125 -5.789062 14.96875 -6.125 C 15.40625 -6.457031 15.789062 -6.625 16.125 -6.625 C 16.34375 -6.625 16.535156 -6.53125 16.703125 -6.34375 C 16.867188 -6.15625 16.953125 -5.84375 16.953125 -5.40625 C 16.953125 -5.03125 16.835938 -4.632812 16.609375 -4.21875 C 16.378906 -3.800781 16.101562 -3.390625 15.78125 -2.984375 C 15.46875 -2.585938 15.1875 -2.203125 14.9375 -1.828125 C 14.6875 -1.453125 14.546875 -1.113281 14.515625 -0.8125 C 14.503906 -0.6875 14.535156 -0.566406 14.609375 -0.453125 C 14.679688 -0.335938 14.78125 -0.28125 14.90625 -0.28125 C 15.125 -0.28125 15.425781 -0.421875 15.8125 -0.703125 C 16.207031 -0.992188 16.628906 -1.363281 17.078125 -1.8125 C 17.617188 -2.382812 17.988281 -2.789062 18.1875 -3.03125 C 18.394531 -3.269531 18.519531 -3.410156 18.5625 -3.453125 C 18.613281 -3.503906 18.65625 -3.53125 18.6875 -3.53125 C 18.769531 -3.53125 18.8125 -3.488281 18.8125 -3.40625 C 18.8125 -3.34375 18.664062 -3.148438 18.375 -2.828125 C 18.082031 -2.503906 17.773438 -2.179688 17.453125 -1.859375 C 16.867188 -1.242188 16.367188 -0.78125 15.953125 -0.46875 C 15.535156 -0.15625 15.160156 0 14.828125 0 C 14.484375 0 14.226562 -0.140625 14.0625 -0.421875 C 13.894531 -0.710938 13.8125 -1.082031 13.8125 -1.53125 C 13.8125 -2.03125 13.9375 -2.503906 14.1875 -2.953125 C 14.4375 -3.410156 14.726562 -3.835938 15.0625 -4.234375 C 15.394531 -4.640625 15.6875 -5 15.9375 -5.3125 C 16.195312 -5.632812 16.328125 -5.90625 16.328125 -6.125 C 16.328125 -6.269531 16.222656 -6.34375 16.015625 -6.34375 C 15.753906 -6.34375 15.40625 -6.160156 14.96875 -5.796875 C 14.53125 -5.441406 14.054688 -4.988281 13.546875 -4.4375 C 13.046875 -3.894531 12.5625 -3.328125 12.09375 -2.734375 C 11.625 -2.148438 11.210938 -1.617188 10.859375 -1.140625 C 10.515625 -0.660156 10.28125 -0.328125 10.15625 -0.140625 Z M 10.15625 -0.140625 "/></g></g><g style="fill:#ffffff;fill-opacity:1;"><g transform="translate(268.876784, 163.319098)"><path style="stroke:none" d="M 7.984375 -6.15625 L 5.15625 -0.484375 C 5.65625 -0.515625 6.195312 -0.710938 6.78125 -1.078125 C 7.375 -1.453125 8.003906 -2.003906 8.671875 -2.734375 C 8.992188 -3.078125 9.179688 -3.296875 9.234375 -3.390625 C 9.296875 -3.484375 9.359375 -3.53125 9.421875 -3.53125 C 9.492188 -3.53125 9.53125 -3.488281 9.53125 -3.40625 C 9.53125 -3.375 9.46875 -3.28125 9.34375 -3.125 C 9.21875 -2.96875 9.0625 -2.785156 8.875 -2.578125 C 8.695312 -2.378906 8.519531 -2.195312 8.34375 -2.03125 C 7.851562 -1.519531 7.316406 -1.085938 6.734375 -0.734375 C 6.148438 -0.390625 5.554688 -0.171875 4.953125 -0.078125 L 1.546875 6.296875 L 0.09375 6.484375 L 3.796875 -0.234375 C 3.679688 -0.316406 3.601562 -0.421875 3.5625 -0.546875 C 3.519531 -0.671875 3.5 -0.800781 3.5 -0.9375 C 3.5 -1.15625 3.5625 -1.332031 3.6875 -1.46875 C 3.820312 -1.601562 3.984375 -1.671875 4.171875 -1.671875 C 4.316406 -1.671875 4.421875 -1.644531 4.484375 -1.59375 L 7.21875 -6.484375 L 7.171875 -6.53125 C 6.703125 -6.113281 6.332031 -5.742188 6.0625 -5.421875 C 5.789062 -5.109375 5.492188 -4.785156 5.171875 -4.453125 C 4.828125 -4.078125 4.566406 -3.769531 4.390625 -3.53125 C 4.210938 -3.300781 4.097656 -3.1875 4.046875 -3.1875 C 3.972656 -3.1875 3.9375 -3.226562 3.9375 -3.3125 C 3.9375 -3.34375 4.070312 -3.519531 4.34375 -3.84375 C 4.613281 -4.175781 5.128906 -4.753906 5.890625 -5.578125 C 6.316406 -6.054688 6.660156 -6.410156 6.921875 -6.640625 C 7.179688 -6.867188 7.394531 -7.066406 7.5625 -7.234375 C 7.738281 -7.398438 7.894531 -7.617188 8.03125 -7.890625 C 8.238281 -8.285156 8.515625 -8.78125 8.859375 -9.375 C 9.210938 -9.976562 9.609375 -10.601562 10.046875 -11.25 C 10.484375 -11.90625 10.941406 -12.519531 11.421875 -13.09375 C 11.910156 -13.675781 12.410156 -14.148438 12.921875 -14.515625 C 13.429688 -14.878906 13.925781 -15.0625 14.40625 -15.0625 C 14.71875 -15.0625 14.941406 -14.96875 15.078125 -14.78125 C 15.210938 -14.59375 15.28125 -14.320312 15.28125 -13.96875 C 15.28125 -13.394531 15.082031 -12.804688 14.6875 -12.203125 C 14.289062 -11.597656 13.75 -10.976562 13.0625 -10.34375 C 12.382812 -9.707031 11.609375 -9.039062 10.734375 -8.34375 C 9.859375 -7.644531 8.941406 -6.914062 7.984375 -6.15625 Z M 8.21875 -6.75 L 8.28125 -6.703125 C 8.644531 -7.015625 9.101562 -7.390625 9.65625 -7.828125 C 10.207031 -8.265625 10.785156 -8.738281 11.390625 -9.25 C 11.992188 -9.769531 12.5625 -10.3125 13.09375 -10.875 C 13.632812 -11.445312 14.070312 -12.015625 14.40625 -12.578125 C 14.738281 -13.140625 14.90625 -13.691406 14.90625 -14.234375 C 14.90625 -14.597656 14.679688 -14.78125 14.234375 -14.78125 C 13.753906 -14.78125 13.265625 -14.546875 12.765625 -14.078125 C 12.265625 -13.609375 11.757812 -12.984375 11.25 -12.203125 C 10.738281 -11.429688 10.226562 -10.566406 9.71875 -9.609375 C 9.21875 -8.648438 8.71875 -7.695312 8.21875 -6.75 Z M 8.21875 -6.75 "/></g></g><g style="fill:#ffffff;fill-opacity:1;"><g transform="translate(274.168131, 163.319098)"><path style="stroke:none" d="M 10.59375 -4.984375 C 10.59375 -4.492188 10.445312 -3.960938 10.15625 -3.390625 C 9.875 -2.828125 9.550781 -2.363281 9.1875 -2 C 9.25 -1.96875 9.332031 -1.953125 9.4375 -1.953125 C 9.851562 -1.953125 10.25 -2.054688 10.625 -2.265625 C 11.007812 -2.484375 11.351562 -2.769531 11.65625 -3.125 C 11.8125 -3.300781 11.910156 -3.410156 11.953125 -3.453125 C 11.992188 -3.503906 12.03125 -3.53125 12.0625 -3.53125 C 12.144531 -3.53125 12.1875 -3.488281 12.1875 -3.40625 C 12.1875 -3.394531 12.15625 -3.34375 12.09375 -3.25 C 12.03125 -3.164062 11.863281 -2.976562 11.59375 -2.6875 C 11.289062 -2.382812 10.9375 -2.140625 10.53125 -1.953125 C 10.125 -1.765625 9.691406 -1.671875 9.234375 -1.671875 C 9.066406 -1.671875 8.960938 -1.675781 8.921875 -1.6875 C 8.554688 -1.28125 8.117188 -0.894531 7.609375 -0.53125 C 7.109375 -0.175781 6.523438 0 5.859375 0 C 5.390625 0 5.023438 -0.191406 4.765625 -0.578125 C 4.515625 -0.972656 4.390625 -1.488281 4.390625 -2.125 C 4.390625 -2.550781 4.40625 -2.847656 4.4375 -3.015625 C 4.476562 -3.179688 4.5 -3.296875 4.5 -3.359375 C 4.5 -3.453125 4.476562 -3.5 4.4375 -3.5 C 4.34375 -3.5 4.253906 -3.4375 4.171875 -3.3125 C 4.085938 -3.1875 4.03125 -3.125 4 -3.125 C 3.90625 -3.125 3.859375 -3.164062 3.859375 -3.25 C 3.859375 -3.289062 3.929688 -3.394531 4.078125 -3.5625 C 4.234375 -3.726562 4.414062 -3.921875 4.625 -4.140625 C 4.84375 -4.367188 5.050781 -4.570312 5.25 -4.75 C 5.945312 -5.394531 6.632812 -5.867188 7.3125 -6.171875 C 8 -6.472656 8.613281 -6.625 9.15625 -6.625 C 9.613281 -6.625 9.96875 -6.46875 10.21875 -6.15625 C 10.46875 -5.851562 10.59375 -5.460938 10.59375 -4.984375 Z M 10.0625 -5.265625 C 10.0625 -5.554688 10 -5.804688 9.875 -6.015625 C 9.75 -6.234375 9.535156 -6.34375 9.234375 -6.34375 C 8.816406 -6.34375 8.378906 -6.171875 7.921875 -5.828125 C 7.472656 -5.484375 7.050781 -5.039062 6.65625 -4.5 C 6.269531 -3.96875 5.953125 -3.40625 5.703125 -2.8125 C 5.460938 -2.226562 5.34375 -1.679688 5.34375 -1.171875 C 5.34375 -0.835938 5.40625 -0.601562 5.53125 -0.46875 C 5.65625 -0.34375 5.800781 -0.28125 5.96875 -0.28125 C 6.4375 -0.28125 6.910156 -0.4375 7.390625 -0.75 C 7.867188 -1.0625 8.3125 -1.46875 8.71875 -1.96875 C 9.125 -2.46875 9.445312 -3.003906 9.6875 -3.578125 C 9.9375 -4.160156 10.0625 -4.722656 10.0625 -5.265625 Z M 10.0625 -5.265625 "/></g></g><g style="fill:#ffffff;fill-opacity:1;"><g transform="translate(282.10516, 163.319098)"><path style="stroke:none" d="M 4.046875 -3.1875 C 3.972656 -3.1875 3.9375 -3.226562 3.9375 -3.3125 C 3.9375 -3.363281 4.007812 -3.472656 4.15625 -3.640625 C 4.3125 -3.816406 4.5 -4.023438 4.71875 -4.265625 C 4.945312 -4.503906 5.15625 -4.734375 5.34375 -4.953125 C 5.851562 -5.515625 6.300781 -5.929688 6.6875 -6.203125 C 7.070312 -6.484375 7.429688 -6.625 7.765625 -6.625 C 8.066406 -6.625 8.296875 -6.507812 8.453125 -6.28125 C 8.617188 -6.050781 8.703125 -5.796875 8.703125 -5.515625 C 8.703125 -5.191406 8.609375 -4.816406 8.421875 -4.390625 C 8.242188 -3.972656 8.035156 -3.570312 7.796875 -3.1875 C 7.554688 -2.8125 7.359375 -2.507812 7.203125 -2.28125 L 7.25 -2.234375 C 7.882812 -2.984375 8.457031 -3.578125 8.96875 -4.015625 C 9.476562 -4.453125 9.785156 -4.832031 9.890625 -5.15625 C 10.015625 -5.5 10.203125 -5.828125 10.453125 -6.140625 C 10.710938 -6.460938 11.050781 -6.625 11.46875 -6.625 C 11.851562 -6.625 12.046875 -6.5 12.046875 -6.25 C 12.046875 -6.007812 11.910156 -5.78125 11.640625 -5.5625 C 11.367188 -5.351562 11.054688 -5.125 10.703125 -4.875 C 10.359375 -4.625 10.050781 -4.34375 9.78125 -4.03125 C 9.507812 -3.726562 9.375 -3.367188 9.375 -2.953125 C 9.375 -2.710938 9.453125 -2.515625 9.609375 -2.359375 C 9.765625 -2.210938 9.945312 -2.140625 10.15625 -2.140625 C 10.550781 -2.140625 10.910156 -2.300781 11.234375 -2.625 C 11.503906 -2.894531 11.691406 -3.113281 11.796875 -3.28125 C 11.910156 -3.445312 11.992188 -3.53125 12.046875 -3.53125 C 12.140625 -3.53125 12.1875 -3.488281 12.1875 -3.40625 C 12.1875 -3.375 12.113281 -3.269531 11.96875 -3.09375 C 11.820312 -2.925781 11.695312 -2.773438 11.59375 -2.640625 C 11.351562 -2.367188 11.101562 -2.175781 10.84375 -2.0625 C 10.59375 -1.957031 10.359375 -1.90625 10.140625 -1.90625 C 9.878906 -1.90625 9.632812 -1.988281 9.40625 -2.15625 C 9.1875 -2.320312 9.078125 -2.550781 9.078125 -2.84375 C 9.078125 -3.113281 9.117188 -3.351562 9.203125 -3.5625 C 9.285156 -3.78125 9.40625 -3.984375 9.5625 -4.171875 L 9.515625 -4.21875 C 8.890625 -3.644531 8.28125 -3.015625 7.6875 -2.328125 C 7.101562 -1.648438 6.507812 -0.921875 5.90625 -0.140625 L 4.40625 0 C 5.21875 -1.300781 5.894531 -2.351562 6.4375 -3.15625 C 6.976562 -3.957031 7.382812 -4.582031 7.65625 -5.03125 C 7.9375 -5.476562 8.078125 -5.804688 8.078125 -6.015625 C 8.078125 -6.234375 7.941406 -6.34375 7.671875 -6.34375 C 7.515625 -6.34375 7.285156 -6.257812 6.984375 -6.09375 C 6.679688 -5.925781 6.289062 -5.597656 5.8125 -5.109375 C 5.34375 -4.609375 4.984375 -4.21875 4.734375 -3.9375 C 4.484375 -3.664062 4.3125 -3.472656 4.21875 -3.359375 C 4.132812 -3.242188 4.078125 -3.1875 4.046875 -3.1875 Z M 4.046875 -3.1875 "/></g></g><g style="fill:#ffffff;fill-opacity:1;"><g transform="translate(290.042188, 163.319098)"><path style="stroke:none" d="M 8.21875 -8.78125 L 9.640625 -11.0625 L 11.109375 -11.15625 L 9.5625 -8.78125 L 12.34375 -8.78125 C 12.425781 -8.78125 12.46875 -8.726562 12.46875 -8.625 C 12.46875 -8.53125 12.425781 -8.484375 12.34375 -8.484375 L 9.390625 -8.484375 C 9.253906 -8.234375 9.007812 -7.835938 8.65625 -7.296875 C 8.300781 -6.753906 7.910156 -6.148438 7.484375 -5.484375 C 7.054688 -4.816406 6.644531 -4.148438 6.25 -3.484375 C 5.851562 -2.828125 5.519531 -2.242188 5.25 -1.734375 C 4.988281 -1.234375 4.859375 -0.867188 4.859375 -0.640625 C 4.859375 -0.398438 5.007812 -0.28125 5.3125 -0.28125 C 5.675781 -0.28125 6.066406 -0.425781 6.484375 -0.71875 C 6.910156 -1.019531 7.394531 -1.441406 7.9375 -1.984375 C 8.539062 -2.585938 8.921875 -3 9.078125 -3.21875 C 9.242188 -3.4375 9.359375 -3.546875 9.421875 -3.546875 C 9.492188 -3.546875 9.53125 -3.5 9.53125 -3.40625 C 9.53125 -3.394531 9.457031 -3.300781 9.3125 -3.125 C 9.175781 -2.945312 9.007812 -2.75 8.8125 -2.53125 C 8.613281 -2.320312 8.425781 -2.128906 8.25 -1.953125 C 7.519531 -1.222656 6.921875 -0.710938 6.453125 -0.421875 C 5.992188 -0.140625 5.597656 0 5.265625 0 C 4.867188 -0.0195312 4.582031 -0.148438 4.40625 -0.390625 C 4.238281 -0.640625 4.15625 -0.898438 4.15625 -1.171875 C 4.15625 -1.847656 4.347656 -2.519531 4.734375 -3.1875 C 5.117188 -3.863281 5.660156 -4.703125 6.359375 -5.703125 L 6.3125 -5.75 C 6.09375 -5.476562 5.875 -5.222656 5.65625 -4.984375 C 5.445312 -4.742188 5.179688 -4.441406 4.859375 -4.078125 C 4.796875 -3.992188 4.691406 -3.867188 4.546875 -3.703125 C 4.410156 -3.535156 4.28125 -3.382812 4.15625 -3.25 C 4.039062 -3.113281 3.96875 -3.046875 3.9375 -3.046875 C 3.851562 -3.046875 3.8125 -3.078125 3.8125 -3.140625 C 3.8125 -3.191406 3.867188 -3.28125 3.984375 -3.40625 C 4.097656 -3.53125 4.382812 -3.859375 4.84375 -4.390625 C 5.082031 -4.660156 5.382812 -5.015625 5.75 -5.453125 C 6.125 -5.890625 6.519531 -6.375 6.9375 -6.90625 C 7.351562 -7.4375 7.742188 -7.960938 8.109375 -8.484375 L 7.25 -8.484375 C 7.164062 -8.484375 7.125 -8.53125 7.125 -8.625 C 7.125 -8.726562 7.15625 -8.78125 7.21875 -8.78125 Z M 8.21875 -8.78125 "/></g></g></g></svg>